<svg version="1.1" id="Layer_1" xmlns="http://www.w3.org/2000/svg" xmlns:xlink="http://www.w3.org/1999/xlink" x="0px" y="0px"
	 width="100%" viewBox="0 0 632 634" enable-background="new 0 0 632 634" xml:space="preserve">
<path fill="#16140F" opacity="1.000000" stroke="none" 
	d="
M633.000000,240.000000 
	C633.000000,371.999969 633.000000,503.499908 633.000000,634.999878 
	C422.333466,634.999939 211.666916,634.999939 1.000275,635.000000 
	C1.000184,423.666870 1.000184,212.333725 1.000092,1.000446 
	C211.666397,1.000297 422.332794,1.000297 632.999634,1.000149 
	C633.000000,80.500000 633.000000,160.000000 633.000000,240.000000 
M32.478676,237.030807 
	C30.282337,240.938431 28.029409,244.815491 25.898722,248.758591 
	C10.632096,277.011383 5.109861,306.986176 9.982942,338.810669 
	C14.868265,370.715118 29.886620,397.602783 50.615280,421.768311 
	C52.586235,424.066040 53.895393,427.363586 54.413242,430.385254 
	C55.477978,436.597839 55.474247,442.990448 56.482311,449.216370 
	C60.603088,474.666870 69.447906,498.228882 84.914886,519.102844 
	C99.148026,538.311523 117.189781,552.920288 138.753830,562.989014 
	C159.313339,572.588684 181.121994,577.477722 203.801590,578.569580 
	C205.783676,578.665039 208.141907,579.436768 209.595139,580.720886 
	C224.867172,594.215576 241.486008,605.534302 260.371063,613.427002 
	C288.546326,625.202576 317.534882,627.888123 347.300842,621.204590 
	C375.214600,614.937012 398.905945,600.619995 420.523590,582.353882 
	C422.850830,580.387390 426.202240,578.843872 429.203339,578.592285 
	C448.495148,576.974792 467.251892,573.424805 485.331940,566.172729 
	C508.894196,556.721802 528.736328,542.202820 544.313721,522.393127 
	C565.075562,495.990234 574.737488,465.209015 576.868469,431.979309 
	C577.167664,427.313477 578.616394,423.746613 581.565247,420.446533 
	C597.912903,402.151245 610.054932,381.464264 617.221741,357.919159 
	C626.234802,328.308380 625.361145,298.833710 615.243530,269.772766 
	C607.554504,247.687424 595.031494,228.341385 579.383850,210.981903 
	C578.186218,209.653290 577.333862,207.570908 577.215698,205.779846 
	C575.917969,186.119156 572.356689,166.992477 565.060181,148.585602 
	C555.533630,124.553131 540.853516,104.397881 520.497070,88.473137 
	C493.504547,67.356895 462.240936,58.169556 428.546631,55.739609 
	C425.951385,55.552444 422.919373,54.517200 421.009094,52.833645 
	C406.352600,39.916809 390.297455,29.259941 372.347595,21.489548 
	C349.418274,11.563546 325.427063,7.583879 300.677429,10.363050 
	C265.817810,14.277480 236.231339,29.943474 210.188019,52.952599 
	C208.385468,54.545139 205.627182,55.719753 203.233612,55.877319 
	C177.900696,57.544910 153.714264,63.256611 131.218735,75.366730 
	C109.065308,87.292671 91.292450,103.899658 78.124802,125.312164 
	C63.161423,149.644775 56.133904,176.388611 54.457882,204.730026 
	C54.330513,206.883835 53.418842,209.281845 52.137661,211.027618 
	C45.852222,219.592300 39.318302,227.974625 32.478676,237.030807 
z"/>
<path fill="#F1AE3E" opacity="1.000000" stroke="none" 
	d="
M32.675423,236.726089 
	C39.318302,227.974625 45.852222,219.592300 52.137661,211.027618 
	C53.418842,209.281845 54.330513,206.883835 54.457882,204.730026 
	C56.133904,176.388611 63.161423,149.644775 78.124802,125.312164 
	C91.292450,103.899658 109.065308,87.292671 131.218735,75.366730 
	C153.714264,63.256611 177.900696,57.544910 203.233612,55.877319 
	C205.627182,55.719753 208.385468,54.545139 210.188019,52.952599 
	C236.231339,29.943474 265.817810,14.277480 300.677429,10.363050 
	C325.427063,7.583879 349.418274,11.563546 372.347595,21.489548 
	C390.297455,29.259941 406.352600,39.916809 421.009094,52.833645 
	C422.919373,54.517200 425.951385,55.552444 428.546631,55.739609 
	C462.240936,58.169556 493.504547,67.356895 520.497070,88.473137 
	C540.853516,104.397881 555.533630,124.553131 565.060181,148.585602 
	C572.356689,166.992477 575.917969,186.119156 577.215698,205.779846 
	C577.333862,207.570908 578.186218,209.653290 579.383850,210.981903 
	C595.031494,228.341385 607.554504,247.687424 615.243530,269.772766 
	C625.361145,298.833710 626.234802,328.308380 617.221741,357.919159 
	C610.054932,381.464264 597.912903,402.151245 581.565247,420.446533 
	C578.616394,423.746613 577.167664,427.313477 576.868469,431.979309 
	C574.737488,465.209015 565.075562,495.990234 544.313721,522.393127 
	C528.736328,542.202820 508.894196,556.721802 485.331940,566.172729 
	C467.251892,573.424805 448.495148,576.974792 429.203339,578.592285 
	C426.202240,578.843872 422.850830,580.387390 420.523590,582.353882 
	C398.905945,600.619995 375.214600,614.937012 347.300842,621.204590 
	C317.534882,627.888123 288.546326,625.202576 260.371063,613.427002 
	C241.486008,605.534302 224.867172,594.215576 209.595139,580.720886 
	C208.141907,579.436768 205.783676,578.665039 203.801590,578.569580 
	C181.121994,577.477722 159.313339,572.588684 138.753830,562.989014 
	C117.189781,552.920288 99.148026,538.311523 84.914886,519.102844 
	C69.447906,498.228882 60.603088,474.666870 56.482311,449.216370 
	C55.474247,442.990448 55.477978,436.597839 54.413242,430.385254 
	C53.895393,427.363586 52.586235,424.066040 50.615280,421.768311 
	C29.886620,397.602783 14.868265,370.715118 9.982942,338.810669 
	C5.109861,306.986176 10.632096,277.011383 25.898722,248.758591 
	C28.029409,244.815491 30.282337,240.938431 32.675423,236.726089 
M132.449570,319.340149 
	C133.689697,337.581818 134.611450,355.853516 136.327103,374.050354 
	C137.010666,381.300323 137.025146,388.753326 141.932266,395.361542 
	C169.508896,432.497742 201.858337,464.765442 239.161301,492.075867 
	C240.963348,493.395203 243.223251,494.662445 245.367676,494.852692 
	C268.219696,496.880096 291.083191,500.028809 313.960175,500.169708 
	C336.500061,500.308563 359.068878,497.457825 381.599823,495.611359 
	C385.248535,495.312347 389.364349,494.236359 392.253571,492.131927 
	C426.873901,466.914612 457.383514,437.399200 483.473053,403.400635 
	C487.154877,398.602692 491.513184,393.660400 493.112823,388.083435 
	C495.517853,379.698700 496.019897,370.719696 496.881165,361.949158 
	C500.376434,326.356598 499.696777,290.824585 494.818085,255.386703 
	C493.962799,249.174316 492.989502,243.223557 488.896301,237.820755 
	C464.257141,205.298309 436.316376,176.038559 403.972076,151.125000 
	C398.033386,146.550644 392.906311,140.200638 384.746979,139.271957 
	C369.546143,137.541870 354.352081,135.496948 339.095245,134.569458 
	C310.790253,132.848694 282.545898,134.250015 254.444717,138.147415 
	C248.073334,139.031082 241.976898,139.944092 236.386963,144.155518 
	C200.541718,171.161102 168.987579,202.381409 142.506180,238.629196 
	C140.077393,241.953705 138.022995,246.253479 137.659790,250.269089 
	C135.608093,272.951782 134.126038,295.686005 132.449570,319.340149 
M464.139282,104.367966 
	C471.399109,117.625153 478.623352,130.902130 485.974609,144.108429 
	C486.696625,145.405533 488.042114,146.544067 489.361542,147.291214 
	C503.862183,155.502258 518.526978,163.429901 532.903625,171.850433 
	C539.472107,175.697662 545.500488,180.467010 552.673279,185.442047 
	C546.592834,153.033127 532.056213,126.868439 507.421814,106.288658 
	C493.766357,94.880783 458.828430,79.742706 448.220612,81.282219 
	C453.427643,88.741989 458.646423,96.218590 464.139282,104.367966 
M116.626572,113.118309 
	C96.101959,132.812469 84.223175,156.972382 78.932709,185.261948 
	C80.053474,184.789719 80.561478,184.693314 80.918961,184.408188 
	C99.592163,169.514389 120.129074,157.720444 141.683319,147.562531 
	C143.563980,146.676239 145.185516,144.640518 146.270218,142.759689 
	C154.945770,127.716660 163.302948,112.488144 172.108749,97.523041 
	C175.542374,91.687714 179.876709,86.382378 184.291367,80.142197 
	C158.365738,85.252655 135.905228,95.117050 116.626572,113.118309 
M497.408905,534.890259 
	C526.471252,515.715942 554.943481,470.983521 551.660217,449.517792 
	C549.466980,451.077026 547.283752,452.566772 545.166138,454.144531 
	C527.651306,467.194122 508.885803,478.100494 489.026062,487.175171 
	C487.732788,487.766083 486.715790,489.325348 485.950867,490.653412 
	C476.790741,506.557190 467.831482,522.578308 458.523041,538.394226 
	C455.424316,543.659424 451.478943,548.426331 447.610718,553.856018 
	C461.023773,552.631348 483.947052,543.862061 497.408905,534.890259 
M571.000854,361.525238 
	C572.802612,371.304443 574.604431,381.083618 576.490295,391.319092 
	C614.320374,338.167511 603.323669,277.861267 576.049805,243.413162 
	C573.072021,267.729309 567.102966,291.188171 558.846313,314.100708 
	C558.246826,315.764343 558.387695,317.962067 558.886108,319.711548 
	C562.785828,333.399078 566.857300,347.037750 571.000854,361.525238 
M296.253113,33.763081 
	C276.244446,36.805721 258.392090,44.926868 241.042389,56.781330 
	C266.763336,60.054523 290.749878,65.990822 314.062134,74.694885 
	C315.378448,75.186363 317.249847,74.543831 318.764496,74.096146 
	C331.785492,70.247505 344.672028,65.879066 357.824341,62.559948 
	C368.334503,59.907612 379.159882,58.504456 390.206329,56.480713 
	C361.811737,37.178196 331.175262,28.337439 296.253113,33.763081 
M137.654587,485.029999 
	C117.032211,475.116638 97.655296,463.175537 79.476578,448.892548 
	C78.869194,493.523865 140.787323,555.449768 184.227646,553.491943 
	C168.995667,535.124023 157.410553,514.831848 147.421310,493.615356 
	C145.419174,489.362915 142.750305,486.582581 137.654587,485.029999 
M34.341290,286.890808 
	C30.073608,304.924133 29.253132,323.027130 33.086655,341.257568 
	C36.894855,359.367554 44.178123,375.875397 54.980694,391.262970 
	C57.505184,378.437775 59.379177,366.273956 62.383671,354.396088 
	C65.396317,342.485931 69.590660,330.877106 73.110130,319.089386 
	C73.519417,317.718567 73.179581,315.976898 72.762619,314.529419 
	C68.823936,300.856323 64.424278,287.303772 60.913288,273.523865 
	C58.403404,263.673096 57.049858,253.527664 55.061840,242.878952 
	C45.690468,256.459961 38.883244,270.676178 34.341290,286.890808 
M373.535095,588.162354 
	C378.923676,584.913696 384.312225,581.665039 390.488983,577.941223 
	C388.723206,577.359619 388.276947,577.121033 387.810760,577.072266 
	C364.871643,574.669495 342.765411,568.737366 321.141357,560.969238 
	C317.421844,559.633057 314.353607,559.729736 310.711914,560.862244 
	C297.748962,564.893555 284.780609,568.981812 271.623505,572.289368 
	C261.956024,574.719666 251.990189,575.963074 241.284332,577.892822 
	C245.070526,580.302124 248.166092,582.449463 251.422394,584.316345 
	C279.915436,600.651917 310.200867,606.931152 342.485901,599.145020 
	C352.869995,596.640686 362.773834,592.144958 373.535095,588.162354 
M447.885956,119.582146 
	C438.979828,104.873032 428.519379,91.351562 416.522858,79.049065 
	C415.469025,77.968338 413.250336,77.524513 411.610413,77.600342 
	C404.308899,77.937988 396.934387,78.040024 389.746674,79.211487 
	C375.256378,81.573158 360.870422,84.574951 346.441406,87.312675 
	C346.449402,87.800735 346.457397,88.288795 346.465393,88.776855 
	C347.884369,89.554878 349.315125,90.312263 350.720459,91.114197 
	C361.915924,97.502823 373.119659,103.877174 384.292816,110.304695 
	C389.310913,113.191437 393.923523,117.418503 399.309784,118.914642 
	C417.976105,124.099594 436.901306,128.352707 455.853149,132.991028 
	C453.439972,128.916595 450.857910,124.556984 447.885956,119.582146 
M258.260986,552.820007 
	C266.934082,550.768860 275.607178,548.717773 284.858185,546.529968 
	C269.212067,537.189880 254.663773,528.393005 239.985046,519.819458 
	C236.206085,517.612244 232.171829,515.541748 227.984711,514.393860 
	C218.228775,511.719391 208.268906,509.798248 198.467758,507.276154 
	C191.011688,505.357483 183.672745,502.983704 175.335510,500.534424 
	C186.657501,521.034424 199.199417,539.286682 214.996719,555.158264 
	C216.079559,556.246216 218.246872,556.899597 219.817810,556.755005 
	C232.358093,555.600891 244.876129,554.205261 258.260986,552.820007 
M551.789368,376.800232 
	C549.578430,367.217468 547.367493,357.634674 545.054688,347.610565 
	C537.320862,360.926025 530.467163,373.746826 522.600769,385.912842 
	C517.312378,394.091644 513.251892,402.292755 511.265106,411.986145 
	C508.181366,427.031433 503.736420,441.797729 499.857819,456.723633 
	C500.183624,456.647736 500.683716,456.636322 501.075958,456.424866 
	C520.352539,446.031464 538.036194,433.424469 553.747070,418.143829 
	C554.854858,417.066345 555.575562,414.907837 555.438904,413.342529 
	C554.399780,401.434692 553.102295,389.549408 551.789368,376.800232 
M430.759369,539.269897 
	C439.480194,526.601318 448.201050,513.932800 457.437286,500.515564 
	C441.287354,504.764862 426.850372,508.987091 412.201752,512.262939 
	C403.034119,514.313049 394.631287,517.106750 386.841736,522.699097 
	C378.794128,528.476746 369.794403,532.934875 361.173035,537.904053 
	C356.558411,540.563843 351.863434,543.084229 346.330017,546.152466 
	C366.888214,552.186768 386.724609,555.636719 406.995636,556.951233 
	C413.027710,557.342529 417.470490,555.864807 421.007538,550.835205 
	C423.762054,546.918274 427.149933,543.446716 430.759369,539.269897 
M125.382401,180.830811 
	C108.796783,190.180801 93.643547,201.475494 79.588173,214.301437 
	C77.061874,216.606750 75.659531,218.967087 76.122009,222.483047 
	C78.068329,237.280045 79.675331,252.125824 81.884758,266.882141 
	C82.862480,273.412109 84.977936,279.771729 86.600418,286.303314 
	C95.335548,271.500732 103.381798,257.040131 112.307381,243.144348 
	C115.904266,237.544586 118.173409,231.904388 119.530769,225.512283 
	C121.601212,215.762039 124.165962,206.111908 126.705467,196.467896 
	C128.344498,190.243484 130.313629,184.105988 132.479233,176.761444 
	C129.643753,178.384399 127.840927,179.416306 125.382401,180.830811 
M92.979996,431.499329 
	C104.982216,441.280487 117.866364,449.687866 132.015015,457.238953 
	C128.274597,443.362305 124.401939,430.369019 121.337807,417.187744 
	C118.936073,406.855957 116.513596,396.972839 110.245857,387.850128 
	C101.648842,375.337158 94.674637,361.709259 86.892143,348.365631 
	C86.629364,348.981140 86.237976,349.672119 86.031433,350.414490 
	C80.256302,371.172302 76.305817,392.223114 76.235466,413.850189 
	C76.230392,415.408783 77.157852,417.367218 78.300659,418.462952 
	C82.851593,422.826447 87.659714,426.921692 92.979996,431.499329 
M528.422485,195.115952 
	C518.906860,188.954666 509.391266,182.793381 499.454773,176.359573 
	C503.708832,192.811462 507.558105,208.036972 511.615540,223.206772 
	C513.050537,228.571869 514.527100,234.016449 516.841492,239.029160 
	C518.977478,243.655518 522.406433,247.666611 525.010925,252.098526 
	C531.635376,263.371216 538.117310,274.727692 544.630981,286.006958 
	C544.735229,285.845703 544.982727,285.600067 545.071106,285.306519 
	C551.473145,264.038849 555.072632,242.313522 555.457825,220.097473 
	C555.481873,218.715744 554.449219,216.926025 553.347656,215.976700 
	C545.320923,209.059570 537.150513,202.309219 528.422485,195.115952 
M272.681488,95.137886 
	C276.768097,92.979965 280.854706,90.822037 285.304779,88.472198 
	C284.216644,87.996773 283.637177,87.652237 283.010376,87.482994 
	C263.694000,82.267548 244.181168,78.485847 224.086594,77.619652 
	C218.219055,77.366730 214.282364,78.756317 210.872894,83.268860 
	C202.877182,93.851425 194.494492,104.147659 186.696915,114.871353 
	C182.610199,120.491646 179.426773,126.768738 175.322769,133.602905 
	C177.343216,133.215164 178.135193,133.116699 178.897400,132.909012 
	C193.122208,129.033234 207.348450,125.162621 221.562866,121.248985 
	C226.780060,119.812538 232.455872,119.151703 237.073151,116.600128 
	C248.978485,110.021057 260.409668,102.583977 272.681488,95.137886 
M521.387512,316.497772 
	C521.387512,325.383575 521.387512,334.269409 521.387512,344.553040 
	C525.711609,335.213135 529.533447,327.028534 533.259705,318.800598 
	C533.632874,317.976501 533.783875,316.727020 533.431885,315.949188 
	C529.644104,307.578064 525.734558,299.262054 521.387756,289.919464 
	C521.387756,299.328888 521.387756,307.412628 521.387512,316.497772 
M334.890137,107.692451 
	C329.790405,105.313965 324.733704,102.835220 319.564850,100.617920 
	C318.008606,99.950325 315.834808,99.280708 314.465332,99.855133 
	C306.051056,103.384552 297.786316,107.270416 289.471832,111.037651 
	C289.606384,111.266632 289.740967,111.495613 289.875549,111.724594 
	C307.113098,111.724594 324.350677,111.724594 342.861389,111.724594 
	C339.655914,110.080315 337.618469,109.035179 334.890137,107.692451 
M468.980408,454.473999 
	C460.436279,463.271454 451.892151,472.068878 442.506470,481.732788 
	C451.820801,478.264801 460.158081,475.206573 468.443024,472.012573 
	C469.386017,471.649078 470.406708,470.664581 470.762543,469.728912 
	C473.979919,461.268036 477.057098,452.753845 480.175354,444.255280 
	C479.913788,444.116058 479.652191,443.976837 479.390625,443.837616 
	C476.059570,447.190979 472.728516,450.544312 468.980408,454.473999 
M177.758255,477.632965 
	C181.350830,478.840881 184.943405,480.048798 188.535980,481.256714 
	C188.074585,481.537231 187.613174,481.817749 187.151764,482.098236 
	C181.520264,475.566559 176.210800,468.716980 170.166290,462.592987 
	C164.176743,456.524658 157.446182,451.187744 151.040649,445.530060 
	C152.115524,444.700165 151.921860,445.065002 152.013596,445.331543 
	C153.249069,448.920776 154.519455,452.498016 155.790512,456.074951 
	C161.434540,471.958038 161.435623,471.957642 177.758255,477.632965 
M453.219177,164.292297 
	C461.559570,172.748810 469.899963,181.205338 478.240356,189.661850 
	C478.671722,189.409698 479.103058,189.157547 479.534393,188.905396 
	C478.378357,185.593262 476.828217,182.361023 476.137451,178.954544 
	C473.713989,167.003235 467.320679,159.245483 454.844971,157.016495 
	C451.056000,156.339523 447.440613,154.691116 442.859222,153.198898 
	C446.689575,157.314178 449.703003,160.551758 453.219177,164.292297 
M187.674759,154.272705 
	C182.840622,155.643448 178.051834,157.210159 173.162369,158.341843 
	C164.504379,160.345764 159.006226,165.127701 157.025894,174.127411 
	C155.859360,179.428848 153.587158,184.486984 152.008148,189.084091 
	C163.823196,177.817307 175.778091,166.417175 187.674759,154.272705 
M98.079514,318.183594 
	C102.007729,326.742920 105.935936,335.302246 110.022354,344.206268 
	C110.022354,326.429626 110.022354,309.469849 110.022354,292.510040 
	C109.588745,292.448975 109.155136,292.387878 108.721527,292.326813 
	C105.115646,300.688385 101.509766,309.049988 98.079514,318.183594 
M294.915039,522.979492 
	C293.521576,522.979492 292.128082,522.979492 290.734619,522.979492 
	C296.233490,526.378784 302.126251,528.559937 307.436829,531.719666 
	C313.214722,535.157410 318.339417,535.098938 324.094208,531.859375 
	C329.884735,528.599609 336.030914,525.971558 342.201080,522.979492 
	C326.344360,522.979492 311.082611,522.979492 294.915039,522.979492 
M479.860138,190.499863 
	C479.681976,190.426498 479.503845,190.353134 479.325653,190.279770 
	C479.377045,190.477615 479.428436,190.675446 479.860138,190.499863 
z"/>
<path fill="#161410" opacity="1.000000" stroke="none" 
	d="
M132.449738,318.871399 
	C134.126038,295.686005 135.608093,272.951782 137.659790,250.269089 
	C138.022995,246.253479 140.077393,241.953705 142.506180,238.629196 
	C168.987579,202.381409 200.541718,171.161102 236.386963,144.155518 
	C241.976898,139.944092 248.073334,139.031082 254.444717,138.147415 
	C282.545898,134.250015 310.790253,132.848694 339.095245,134.569458 
	C354.352081,135.496948 369.546143,137.541870 384.746979,139.271957 
	C392.906311,140.200638 398.033386,146.550644 403.972076,151.125000 
	C436.316376,176.038559 464.257141,205.298309 488.896301,237.820755 
	C492.989502,243.223557 493.962799,249.174316 494.818085,255.386703 
	C499.696777,290.824585 500.376434,326.356598 496.881165,361.949158 
	C496.019897,370.719696 495.517853,379.698700 493.112823,388.083435 
	C491.513184,393.660400 487.154877,398.602692 483.473053,403.400635 
	C457.383514,437.399200 426.873901,466.914612 392.253571,492.131927 
	C389.364349,494.236359 385.248535,495.312347 381.599823,495.611359 
	C359.068878,497.457825 336.500061,500.308563 313.960175,500.169708 
	C291.083191,500.028809 268.219696,496.880096 245.367676,494.852692 
	C243.223251,494.662445 240.963348,493.395203 239.161301,492.075867 
	C201.858337,464.765442 169.508896,432.497742 141.932266,395.361542 
	C137.025146,388.753326 137.010666,381.300323 136.327103,374.050354 
	C134.611450,355.853516 133.689697,337.581818 132.449738,318.871399 
M245.265778,385.937042 
	C243.500763,386.198029 241.735748,386.459015 239.564545,386.780029 
	C239.737442,388.598907 239.882935,390.129456 240.007462,391.439392 
	C279.338867,391.439392 318.075165,391.439392 357.123322,391.439392 
	C357.123322,389.793243 357.123322,388.258148 357.123322,386.576019 
	C355.994385,386.436401 355.187775,386.333832 354.380463,386.237244 
	C340.328949,384.556000 335.671082,379.267426 338.280975,365.306702 
	C340.093933,355.609100 344.058319,346.324707 346.840820,336.791321 
	C347.799652,333.506195 349.454193,332.434265 352.884094,332.517181 
	C362.876617,332.758698 372.878754,332.603271 382.877106,332.603363 
	C392.453186,332.603455 392.512238,332.582520 395.759766,341.772827 
	C399.742462,353.043640 403.858917,364.276947 407.432098,375.678589 
	C409.276581,381.564056 407.471863,383.998688 401.513580,385.411163 
	C398.790253,386.056793 395.970428,386.295380 393.059753,386.739075 
	C393.059753,388.355621 393.059753,389.796295 393.059753,391.338318 
	C419.015289,391.338318 444.743317,391.338318 471.405640,391.338318 
	C470.657288,389.300690 470.503876,386.841766 469.464630,386.381073 
	C462.125702,383.127869 459.458710,376.530518 456.851562,369.812897 
	C440.866760,328.626160 424.895203,287.434296 408.899078,246.252014 
	C407.400452,242.393814 406.760895,237.143997 403.905029,235.170807 
	C401.092957,233.227905 395.968628,234.605698 391.858490,234.572372 
	C380.003052,234.476227 380.111450,234.527328 375.819427,245.608398 
	C360.519623,285.108887 345.299744,324.642090 329.630615,363.996063 
	C327.044434,370.491425 322.812073,376.502258 318.494537,382.082458 
	C315.132263,386.428070 313.280518,386.124176 309.976074,381.506927 
	C307.398682,377.905579 305.278961,373.841797 303.664795,369.706787 
	C286.513336,325.768860 269.471558,281.787933 252.528976,237.769043 
	C251.421860,234.892639 250.030396,234.027969 247.060730,234.188736 
	C241.914413,234.467300 236.716125,234.597565 231.590790,234.172760 
	C228.044418,233.878830 226.680038,235.239090 225.500443,238.309921 
	C215.375778,264.667236 205.116562,290.973022 194.865311,317.281586 
	C188.592819,333.379150 182.457748,349.534576 175.881317,365.507721 
	C172.399979,373.963318 168.499237,382.358673 159.090485,386.254974 
	C158.210632,386.619324 157.441086,388.825256 157.717194,389.892303 
	C157.926697,390.701996 159.876236,391.533875 161.060089,391.546448 
	C174.044006,391.684143 187.029602,391.668915 200.014755,391.674896 
	C201.302933,391.675476 202.591171,391.541534 204.042252,391.460999 
	C204.042252,389.735931 204.042252,388.301422 204.042252,386.685852 
	C202.543686,386.474701 201.247757,386.281464 199.948868,386.110748 
	C187.376968,384.458130 182.386475,378.496124 185.049988,366.047607 
	C187.293579,355.561798 191.100037,345.401062 194.457321,335.176117 
	C194.827042,334.050110 196.783539,332.731323 198.020996,332.714020 
	C210.849731,332.534821 223.682800,332.538788 236.511719,332.711670 
	C237.730423,332.728088 239.615692,333.978424 240.031952,335.090118 
	C244.750366,347.691681 249.471008,360.302002 253.716003,373.067902 
	C256.603882,381.752594 254.962738,384.024170 245.265778,385.937042 
z"/>
<path fill="#191610" opacity="1.000000" stroke="none" 
	d="
M464.002258,104.031586 
	C458.646423,96.218590 453.427643,88.741989 448.220612,81.282219 
	C458.828430,79.742706 493.766357,94.880783 507.421814,106.288658 
	C532.056213,126.868439 546.592834,153.033127 552.673279,185.442047 
	C545.500488,180.467010 539.472107,175.697662 532.903625,171.850433 
	C518.526978,163.429901 503.862183,155.502258 489.361542,147.291214 
	C488.042114,146.544067 486.696625,145.405533 485.974609,144.108429 
	C478.623352,130.902130 471.399109,117.625153 464.002258,104.031586 
z"/>
<path fill="#191610" opacity="1.000000" stroke="none" 
	d="
M116.915146,112.911102 
	C135.905228,95.117050 158.365738,85.252655 184.291367,80.142197 
	C179.876709,86.382378 175.542374,91.687714 172.108749,97.523041 
	C163.302948,112.488144 154.945770,127.716660 146.270218,142.759689 
	C145.185516,144.640518 143.563980,146.676239 141.683319,147.562531 
	C120.129074,157.720444 99.592163,169.514389 80.918961,184.408188 
	C80.561478,184.693314 80.053474,184.789719 78.932709,185.261948 
	C84.223175,156.972382 96.101959,132.812469 116.915146,112.911102 
z"/>
<path fill="#191610" opacity="1.000000" stroke="none" 
	d="
M497.105377,535.086914 
	C483.947052,543.862061 461.023773,552.631348 447.610718,553.856018 
	C451.478943,548.426331 455.424316,543.659424 458.523041,538.394226 
	C467.831482,522.578308 476.790741,506.557190 485.950867,490.653412 
	C486.715790,489.325348 487.732788,487.766083 489.026062,487.175171 
	C508.885803,478.100494 527.651306,467.194122 545.166138,454.144531 
	C547.283752,452.566772 549.466980,451.077026 551.660217,449.517792 
	C554.943481,470.983521 526.471252,515.715942 497.105377,535.086914 
z"/>
<path fill="#191610" opacity="1.000000" stroke="none" 
	d="
M570.938354,361.108368 
	C566.857300,347.037750 562.785828,333.399078 558.886108,319.711548 
	C558.387695,317.962067 558.246826,315.764343 558.846313,314.100708 
	C567.102966,291.188171 573.072021,267.729309 576.049805,243.413162 
	C603.323669,277.861267 614.320374,338.167511 576.490295,391.319092 
	C574.604431,381.083618 572.802612,371.304443 570.938354,361.108368 
z"/>
<path fill="#191610" opacity="1.000000" stroke="none" 
	d="
M296.661255,33.607994 
	C331.175262,28.337439 361.811737,37.178196 390.206329,56.480713 
	C379.159882,58.504456 368.334503,59.907612 357.824341,62.559948 
	C344.672028,65.879066 331.785492,70.247505 318.764496,74.096146 
	C317.249847,74.543831 315.378448,75.186363 314.062134,74.694885 
	C290.749878,65.990822 266.763336,60.054523 241.042389,56.781330 
	C258.392090,44.926868 276.244446,36.805721 296.661255,33.607994 
z"/>
<path fill="#191610" opacity="1.000000" stroke="none" 
	d="
M138.004578,485.168823 
	C142.750305,486.582581 145.419174,489.362915 147.421310,493.615356 
	C157.410553,514.831848 168.995667,535.124023 184.227646,553.491943 
	C140.787323,555.449768 78.869194,493.523865 79.476578,448.892548 
	C97.655296,463.175537 117.032211,475.116638 138.004578,485.168823 
z"/>
<path fill="#191610" opacity="1.000000" stroke="none" 
	d="
M34.480736,286.504578 
	C38.883244,270.676178 45.690468,256.459961 55.061840,242.878952 
	C57.049858,253.527664 58.403404,263.673096 60.913288,273.523865 
	C64.424278,287.303772 68.823936,300.856323 72.762619,314.529419 
	C73.179581,315.976898 73.519417,317.718567 73.110130,319.089386 
	C69.590660,330.877106 65.396317,342.485931 62.383671,354.396088 
	C59.379177,366.273956 57.505184,378.437775 54.980694,391.262970 
	C44.178123,375.875397 36.894855,359.367554 33.086655,341.257568 
	C29.253132,323.027130 30.073608,304.924133 34.480736,286.504578 
z"/>
<path fill="#181510" opacity="1.000000" stroke="none" 
	d="
M373.216248,588.361328 
	C362.773834,592.144958 352.869995,596.640686 342.485901,599.145020 
	C310.200867,606.931152 279.915436,600.651917 251.422394,584.316345 
	C248.166092,582.449463 245.070526,580.302124 241.284332,577.892822 
	C251.990189,575.963074 261.956024,574.719666 271.623505,572.289368 
	C284.780609,568.981812 297.748962,564.893555 310.711914,560.862244 
	C314.353607,559.729736 317.421844,559.633057 321.141357,560.969238 
	C342.765411,568.737366 364.871643,574.669495 387.810760,577.072266 
	C388.276947,577.121033 388.723206,577.359619 390.488983,577.941223 
	C384.312225,581.665039 378.923676,584.913696 373.216248,588.361328 
z"/>
<path fill="#191610" opacity="1.000000" stroke="none" 
	d="
M448.080902,119.889755 
	C450.857910,124.556984 453.439972,128.916595 455.853149,132.991028 
	C436.901306,128.352707 417.976105,124.099594 399.309784,118.914642 
	C393.923523,117.418503 389.310913,113.191437 384.292816,110.304695 
	C373.119659,103.877174 361.915924,97.502823 350.720459,91.114197 
	C349.315125,90.312263 347.884369,89.554878 346.465393,88.776855 
	C346.457397,88.288795 346.449402,87.800735 346.441406,87.312675 
	C360.870422,84.574951 375.256378,81.573158 389.746674,79.211487 
	C396.934387,78.040024 404.308899,77.937988 411.610413,77.600342 
	C413.250336,77.524513 415.469025,77.968338 416.522858,79.049065 
	C428.519379,91.351562 438.979828,104.873032 448.080902,119.889755 
z"/>
<path fill="#191610" opacity="1.000000" stroke="none" 
	d="
M257.830994,552.851807 
	C244.876129,554.205261 232.358093,555.600891 219.817810,556.755005 
	C218.246872,556.899597 216.079559,556.246216 214.996719,555.158264 
	C199.199417,539.286682 186.657501,521.034424 175.335510,500.534424 
	C183.672745,502.983704 191.011688,505.357483 198.467758,507.276154 
	C208.268906,509.798248 218.228775,511.719391 227.984711,514.393860 
	C232.171829,515.541748 236.206085,517.612244 239.985046,519.819458 
	C254.663773,528.393005 269.212067,537.189880 284.858185,546.529968 
	C275.607178,548.717773 266.934082,550.768860 257.830994,552.851807 
z"/>
<path fill="#191610" opacity="1.000000" stroke="none" 
	d="
M551.837341,377.228638 
	C553.102295,389.549408 554.399780,401.434692 555.438904,413.342529 
	C555.575562,414.907837 554.854858,417.066345 553.747070,418.143829 
	C538.036194,433.424469 520.352539,446.031464 501.075958,456.424866 
	C500.683716,456.636322 500.183624,456.647736 499.857819,456.723633 
	C503.736420,441.797729 508.181366,427.031433 511.265106,411.986145 
	C513.251892,402.292755 517.312378,394.091644 522.600769,385.912842 
	C530.467163,373.746826 537.320862,360.926025 545.054688,347.610565 
	C547.367493,357.634674 549.578430,367.217468 551.837341,377.228638 
z"/>
<path fill="#191610" opacity="1.000000" stroke="none" 
	d="
M430.507874,539.523560 
	C427.149933,543.446716 423.762054,546.918274 421.007538,550.835205 
	C417.470490,555.864807 413.027710,557.342529 406.995636,556.951233 
	C386.724609,555.636719 366.888214,552.186768 346.330017,546.152466 
	C351.863434,543.084229 356.558411,540.563843 361.173035,537.904053 
	C369.794403,532.934875 378.794128,528.476746 386.841736,522.699097 
	C394.631287,517.106750 403.034119,514.313049 412.201752,512.262939 
	C426.850372,508.987091 441.287354,504.764862 457.437286,500.515564 
	C448.201050,513.932800 439.480194,526.601318 430.507874,539.523560 
z"/>
<path fill="#191610" opacity="1.000000" stroke="none" 
	d="
M125.710251,180.639496 
	C127.840927,179.416306 129.643753,178.384399 132.479233,176.761444 
	C130.313629,184.105988 128.344498,190.243484 126.705467,196.467896 
	C124.165962,206.111908 121.601212,215.762039 119.530769,225.512283 
	C118.173409,231.904388 115.904266,237.544586 112.307381,243.144348 
	C103.381798,257.040131 95.335548,271.500732 86.600418,286.303314 
	C84.977936,279.771729 82.862480,273.412109 81.884758,266.882141 
	C79.675331,252.125824 78.068329,237.280045 76.122009,222.483047 
	C75.659531,218.967087 77.061874,216.606750 79.588173,214.301437 
	C93.643547,201.475494 108.796783,190.180801 125.710251,180.639496 
z"/>
<path fill="#191610" opacity="1.000000" stroke="none" 
	d="
M92.676300,431.307800 
	C87.659714,426.921692 82.851593,422.826447 78.300659,418.462952 
	C77.157852,417.367218 76.230392,415.408783 76.235466,413.850189 
	C76.305817,392.223114 80.256302,371.172302 86.031433,350.414490 
	C86.237976,349.672119 86.629364,348.981140 86.892143,348.365631 
	C94.674637,361.709259 101.648842,375.337158 110.245857,387.850128 
	C116.513596,396.972839 118.936073,406.855957 121.337807,417.187744 
	C124.401939,430.369019 128.274597,443.362305 132.015015,457.238953 
	C117.866364,449.687866 104.982216,441.280487 92.676300,431.307800 
z"/>
<path fill="#191610" opacity="1.000000" stroke="none" 
	d="
M528.723999,195.311066 
	C537.150513,202.309219 545.320923,209.059570 553.347656,215.976700 
	C554.449219,216.926025 555.481873,218.715744 555.457825,220.097473 
	C555.072632,242.313522 551.473145,264.038849 545.071106,285.306519 
	C544.982727,285.600067 544.735229,285.845703 544.630981,286.006958 
	C538.117310,274.727692 531.635376,263.371216 525.010925,252.098526 
	C522.406433,247.666611 518.977478,243.655518 516.841492,239.029160 
	C514.527100,234.016449 513.050537,228.571869 511.615540,223.206772 
	C507.558105,208.036972 503.708832,192.811462 499.454773,176.359573 
	C509.391266,182.793381 518.906860,188.954666 528.723999,195.311066 
z"/>
<path fill="#191610" opacity="1.000000" stroke="none" 
	d="
M272.355865,95.313766 
	C260.409668,102.583977 248.978485,110.021057 237.073151,116.600128 
	C232.455872,119.151703 226.780060,119.812538 221.562866,121.248985 
	C207.348450,125.162621 193.122208,129.033234 178.897400,132.909012 
	C178.135193,133.116699 177.343216,133.215164 175.322769,133.602905 
	C179.426773,126.768738 182.610199,120.491646 186.696915,114.871353 
	C194.494492,104.147659 202.877182,93.851425 210.872894,83.268860 
	C214.282364,78.756317 218.219055,77.366730 224.086594,77.619652 
	C244.181168,78.485847 263.694000,82.267548 283.010376,87.482994 
	C283.637177,87.652237 284.216644,87.996773 285.304779,88.472198 
	C280.854706,90.822037 276.768097,92.979965 272.355865,95.313766 
z"/>
<path fill="#241D12" opacity="1.000000" stroke="none" 
	d="
M521.387634,315.997070 
	C521.387756,307.412628 521.387756,299.328888 521.387756,289.919464 
	C525.734558,299.262054 529.644104,307.578064 533.431885,315.949188 
	C533.783875,316.727020 533.632874,317.976501 533.259705,318.800598 
	C529.533447,327.028534 525.711609,335.213135 521.387512,344.553040 
	C521.387512,334.269409 521.387512,325.383575 521.387634,315.997070 
z"/>
<path fill="#231D12" opacity="1.000000" stroke="none" 
	d="
M335.235565,107.841248 
	C337.618469,109.035179 339.655914,110.080315 342.861389,111.724594 
	C324.350677,111.724594 307.113098,111.724594 289.875549,111.724594 
	C289.740967,111.495613 289.606384,111.266632 289.471832,111.037651 
	C297.786316,107.270416 306.051056,103.384552 314.465332,99.855133 
	C315.834808,99.280708 318.008606,99.950325 319.564850,100.617920 
	C324.733704,102.835220 329.790405,105.313965 335.235565,107.841248 
z"/>
<path fill="#231D12" opacity="1.000000" stroke="none" 
	d="
M469.188904,454.185852 
	C472.728516,450.544312 476.059570,447.190979 479.390625,443.837616 
	C479.652191,443.976837 479.913788,444.116058 480.175354,444.255280 
	C477.057098,452.753845 473.979919,461.268036 470.762543,469.728912 
	C470.406708,470.664581 469.386017,471.649078 468.443024,472.012573 
	C460.158081,475.206573 451.820801,478.264801 442.506470,481.732788 
	C451.892151,472.068878 460.436279,463.271454 469.188904,454.185852 
z"/>
<path fill="#231D12" opacity="1.000000" stroke="none" 
	d="
M177.410583,477.453247 
	C161.435623,471.957642 161.434540,471.958038 155.790512,456.074951 
	C154.519455,452.498016 153.249069,448.920776 152.013596,445.331543 
	C151.921860,445.065002 152.115524,444.700165 151.040649,445.530060 
	C157.446182,451.187744 164.176743,456.524658 170.166290,462.592987 
	C176.210800,468.716980 181.520264,475.566559 187.151764,482.098236 
	C187.613174,481.817749 188.074585,481.537231 188.535980,481.256714 
	C184.943405,480.048798 181.350830,478.840881 177.410583,477.453247 
z"/>
<path fill="#221C12" opacity="1.000000" stroke="none" 
	d="
M452.967804,164.040802 
	C449.703003,160.551758 446.689575,157.314178 442.859222,153.198898 
	C447.440613,154.691116 451.056000,156.339523 454.844971,157.016495 
	C467.320679,159.245483 473.713989,167.003235 476.137451,178.954544 
	C476.828217,182.361023 478.378357,185.593262 479.534393,188.905396 
	C479.103058,189.157547 478.671722,189.409698 478.240356,189.661850 
	C469.899963,181.205338 461.559570,172.748810 452.967804,164.040802 
z"/>
<path fill="#221C12" opacity="1.000000" stroke="none" 
	d="
M187.703857,154.644867 
	C175.778091,166.417175 163.823196,177.817307 152.008148,189.084091 
	C153.587158,184.486984 155.859360,179.428848 157.025894,174.127411 
	C159.006226,165.127701 164.504379,160.345764 173.162369,158.341843 
	C178.051834,157.210159 182.840622,155.643448 187.703857,154.644867 
z"/>
<path fill="#1F1A11" opacity="1.000000" stroke="none" 
	d="
M97.991699,317.797577 
	C101.509766,309.049988 105.115646,300.688385 108.721527,292.326813 
	C109.155136,292.387878 109.588745,292.448975 110.022354,292.510040 
	C110.022354,309.469849 110.022354,326.429626 110.022354,344.206268 
	C105.935936,335.302246 102.007729,326.742920 97.991699,317.797577 
z"/>
<path fill="#1F1A11" opacity="1.000000" stroke="none" 
	d="
M295.367950,522.979492 
	C311.082611,522.979492 326.344360,522.979492 342.201080,522.979492 
	C336.030914,525.971558 329.884735,528.599609 324.094208,531.859375 
	C318.339417,535.098938 313.214722,535.157410 307.436829,531.719666 
	C302.126251,528.559937 296.233490,526.378784 290.734619,522.979492 
	C292.128082,522.979492 293.521576,522.979492 295.367950,522.979492 
z"/>
<path fill="#221C12" opacity="1.000000" stroke="none" 
	d="
M479.669983,190.686569 
	C479.428436,190.675446 479.377045,190.477615 479.325684,190.279770 
	C479.503845,190.353134 479.681976,190.426498 479.669983,190.686569 
z"/>
<path fill="#FBFBFB" opacity="1.000000" stroke="none" 
	d="
M245.671234,385.875305 
	C254.962738,384.024170 256.603882,381.752594 253.716003,373.067902 
	C249.471008,360.302002 244.750366,347.691681 240.031952,335.090118 
	C239.615692,333.978424 237.730423,332.728088 236.511719,332.711670 
	C223.682800,332.538788 210.849731,332.534821 198.020996,332.714020 
	C196.783539,332.731323 194.827042,334.050110 194.457321,335.176117 
	C191.100037,345.401062 187.293579,355.561798 185.049988,366.047607 
	C182.386475,378.496124 187.376968,384.458130 199.948868,386.110748 
	C201.247757,386.281464 202.543686,386.474701 204.042252,386.685852 
	C204.042252,388.301422 204.042252,389.735931 204.042252,391.460999 
	C202.591171,391.541534 201.302933,391.675476 200.014755,391.674896 
	C187.029602,391.668915 174.044006,391.684143 161.060089,391.546448 
	C159.876236,391.533875 157.926697,390.701996 157.717194,389.892303 
	C157.441086,388.825256 158.210632,386.619324 159.090485,386.254974 
	C168.499237,382.358673 172.399979,373.963318 175.881317,365.507721 
	C182.457748,349.534576 188.592819,333.379150 194.865311,317.281586 
	C205.116562,290.973022 215.375778,264.667236 225.500443,238.309921 
	C226.680038,235.239090 228.044418,233.878830 231.590790,234.172760 
	C236.716125,234.597565 241.914413,234.467300 247.060730,234.188736 
	C250.030396,234.027969 251.421860,234.892639 252.528976,237.769043 
	C269.471558,281.787933 286.513336,325.768860 303.664795,369.706787 
	C305.278961,373.841797 307.398682,377.905579 309.976074,381.506927 
	C313.280518,386.124176 315.132263,386.428070 318.494537,382.082458 
	C322.812073,376.502258 327.044434,370.491425 329.630615,363.996063 
	C345.299744,324.642090 360.519623,285.108887 375.819427,245.608398 
	C380.111450,234.527328 380.003052,234.476227 391.858490,234.572372 
	C395.968628,234.605698 401.092957,233.227905 403.905029,235.170807 
	C406.760895,237.143997 407.400452,242.393814 408.899078,246.252014 
	C424.895203,287.434296 440.866760,328.626160 456.851562,369.812897 
	C459.458710,376.530518 462.125702,383.127869 469.464630,386.381073 
	C470.503876,386.841766 470.657288,389.300690 471.405640,391.338318 
	C444.743317,391.338318 419.015289,391.338318 393.059753,391.338318 
	C393.059753,389.796295 393.059753,388.355621 393.059753,386.739075 
	C395.970428,386.295380 398.790253,386.056793 401.513580,385.411163 
	C407.471863,383.998688 409.276581,381.564056 407.432098,375.678589 
	C403.858917,364.276947 399.742462,353.043640 395.759766,341.772827 
	C392.512238,332.582520 392.453186,332.603455 382.877106,332.603363 
	C372.878754,332.603271 362.876617,332.758698 352.884094,332.517181 
	C349.454193,332.434265 347.799652,333.506195 346.840820,336.791321 
	C344.058319,346.324707 340.093933,355.609100 338.280975,365.306702 
	C335.671082,379.267426 340.328949,384.556000 354.380463,386.237244 
	C355.187775,386.333832 355.994385,386.436401 357.123322,386.576019 
	C357.123322,388.258148 357.123322,389.793243 357.123322,391.439392 
	C318.075165,391.439392 279.338867,391.439392 240.007462,391.439392 
	C239.882935,390.129456 239.737442,388.598907 239.564545,386.780029 
	C241.735748,386.459015 243.500763,386.198029 245.671234,385.875305 
M201.329498,316.837372 
	C200.140305,320.064178 198.951111,323.290955 197.679001,326.742737 
	C211.043442,326.742737 223.896072,326.742737 237.173050,326.742737 
	C230.827362,309.183929 224.619705,292.007050 217.961914,273.584595 
	C212.185226,288.660858 206.921829,302.397522 201.329498,316.837372 
M353.333710,319.884979 
	C352.507874,322.119598 351.682037,324.354218 350.764282,326.837646 
	C364.223145,326.837646 376.980438,326.837646 390.341492,326.837646 
	C384.019409,309.297241 377.824127,292.108643 371.128204,273.530975 
	C364.991364,289.613922 359.347565,304.404724 353.333710,319.884979 
z"/>
<path fill="#1A1814" opacity="1.000000" stroke="none" 
	d="
M201.493958,316.485779 
	C206.921829,302.397522 212.185226,288.660858 217.961914,273.584595 
	C224.619705,292.007050 230.827362,309.183929 237.173050,326.742737 
	C223.896072,326.742737 211.043442,326.742737 197.679001,326.742737 
	C198.951111,323.290955 200.140305,320.064178 201.493958,316.485779 
z"/>
<path fill="#191714" opacity="1.000000" stroke="none" 
	d="
M353.518738,319.540222 
	C359.347565,304.404724 364.991364,289.613922 371.128204,273.530975 
	C377.824127,292.108643 384.019409,309.297241 390.341492,326.837646 
	C376.980438,326.837646 364.223145,326.837646 350.764282,326.837646 
	C351.682037,324.354218 352.507874,322.119598 353.518738,319.540222 
z"/>
</svg>