<svg xmlns="http://www.w3.org/2000/svg" viewBox="0 0 800 600">
	<defs>
		<linearGradient id="sky2" x1="0" y1="0" x2="0" y2="1">
			<stop offset="0%" stop-color="#bfe3e8" />
			<stop offset="100%" stop-color="#f4ede0" />
		</linearGradient>
	</defs>
	<rect width="800" height="600" fill="url(#sky2)" />
	<polygon points="0,420 200,300 340,400 460,270 620,410 800,340 800,600 0,600" fill="#8fa8a0" opacity="0.6" />
	<rect x="0" y="480" width="800" height="120" fill="#5c5c5c" />
	<rect x="0" y="480" width="800" height="10" fill="#e8e4da" />
	<rect x="60" y="420" width="26" height="180" fill="#3a3a3a" />
	<rect x="30" y="420" width="86" height="26" rx="6" fill="#e0483f" />
	<rect x="30" y="420" width="86" height="26" rx="6" fill="none" stroke="#fff" stroke-width="4" stroke-dasharray="10 8" />
	<g transform="translate(420,330)">
		<ellipse cx="90" cy="170" rx="120" ry="26" fill="#5c5c5c" opacity="0.25" />
		<path d="M20 120 C10 60 60 10 120 20 C150 24 170 50 175 80 C210 70 240 90 235 120 C260 130 260 165 225 175 L60 190 C20 190 5 160 20 120 Z" fill="#4a3324" />
		<path d="M40 40 C20 10 -10 5 -25 -20 M40 40 C55 5 30 -20 45 -45" stroke="#2c1f16" stroke-width="8" fill="none" stroke-linecap="round" />
		<path d="M150 30 C175 0 210 0 220 -25 M150 30 C140 -5 165 -30 155 -55" stroke="#2c1f16" stroke-width="8" fill="none" stroke-linecap="round" />
		<rect x="30" y="185" width="18" height="45" fill="#2c1f16" />
		<rect x="180" y="185" width="18" height="45" fill="#2c1f16" />
	</g>
</svg>
