<svg xmlns="http://www.w3.org/2000/svg" viewBox="0 0 800 600">
	<defs>
		<linearGradient id="sky3" x1="0" y1="0" x2="0" y2="1">
			<stop offset="0%" stop-color="#050a14" />
			<stop offset="100%" stop-color="#132033" />
		</linearGradient>
	</defs>
	<rect width="800" height="600" fill="url(#sky3)" />
	<circle cx="120" cy="90" r="1.6" fill="#fff" opacity="0.8" />
	<circle cx="220" cy="140" r="1.2" fill="#fff" opacity="0.6" />
	<circle cx="680" cy="80" r="1.6" fill="#fff" opacity="0.8" />
	<circle cx="600" cy="160" r="1.2" fill="#fff" opacity="0.6" />
	<circle cx="400" cy="60" r="1.2" fill="#fff" opacity="0.7" />
	<path d="M0 260 C150 180 250 260 400 200 C550 140 650 220 800 170 L800 320 C650 260 550 320 400 340 C250 360 150 300 0 360 Z" fill="#1f8f82" opacity="0.55" />
	<path d="M0 300 C150 240 260 320 400 270 C540 220 640 280 800 230 L800 360 C640 320 540 340 400 380 C260 420 150 380 0 420 Z" fill="#43c7b6" opacity="0.4" />
	<polygon points="0,470 160,340 300,440 440,300 600,440 800,360 800,600 0,600" fill="#0b1622" />
	<g transform="translate(240,240) rotate(-8)">
		<rect x="-180" y="-24" width="360" height="48" rx="24" fill="#e0483f" />
		<text x="0" y="8" font-family="Georgia, serif" font-size="26" font-weight="700" fill="#f7f5f0" text-anchor="middle">CANCELLED</text>
	</g>
</svg>
